<svg width="20" height="20" viewBox="0 0 20 20" fill="none" xmlns="http://www.w3.org/2000/svg">
<path d="M13.8427 8.27423L13.8433 8.27483C13.8511 8.28257 13.8573 8.29179 13.8616 8.30194C13.8658 8.3121 13.868 8.323 13.868 8.33399C13.868 8.34499 13.8658 8.35588 13.8616 8.36604C13.8574 8.37611 13.8512 8.38525 13.8435 8.39295C13.8435 8.39302 13.8434 8.39309 13.8433 8.39316L10.2693 11.9256L10.2692 11.9255L10.264 11.9308C10.2562 11.9387 10.247 11.9449 10.2369 11.9491C10.2267 11.9533 10.2158 11.9555 10.2048 11.9555C10.1938 11.9555 10.1829 11.9533 10.1728 11.9491C10.1626 11.9449 10.1534 11.9387 10.1456 11.9308L10.1435 11.9287L6.61014 8.39533L6.61015 8.39533L6.60796 8.39316C6.60015 8.38541 6.59395 8.3762 6.58972 8.36604C6.58549 8.35589 6.58331 8.345 6.58331 8.33399C6.58331 8.32299 6.58549 8.3121 6.58972 8.30195C6.59395 8.29179 6.60015 8.28257 6.60796 8.27483L6.60856 8.27423C6.62417 8.25871 6.6453 8.25 6.66731 8.25C6.68915 8.25 6.71011 8.25857 6.72568 8.27386C6.72581 8.27398 6.72594 8.27411 6.72606 8.27423L9.67448 11.2227L10.2011 11.7493L10.7314 11.2264L13.7231 8.27636L13.7231 8.27637L13.7252 8.27423C13.7408 8.25871 13.762 8.25 13.784 8.25C13.806 8.25 13.8271 8.25871 13.8427 8.27423Z" stroke="black" stroke-opacity="0.38" stroke-width="1.5"/>
</svg>
