<svg width="16" height="16" viewBox="0 0 16 16" fill="none" xmlns="http://www.w3.org/2000/svg">
<path d="M12.6666 7.33329H8.66663V3.33329C8.66663 3.15648 8.59639 2.98691 8.47136 2.86189C8.34634 2.73686 8.17677 2.66663 7.99996 2.66663C7.82315 2.66663 7.65358 2.73686 7.52855 2.86189C7.40353 2.98691 7.33329 3.15648 7.33329 3.33329V7.33329H3.33329C3.15648 7.33329 2.98691 7.40353 2.86189 7.52855C2.73686 7.65358 2.66663 7.82315 2.66663 7.99996C2.66663 8.17677 2.73686 8.34634 2.86189 8.47136C2.98691 8.59639 3.15648 8.66663 3.33329 8.66663H7.33329V12.6666C7.33329 12.8434 7.40353 13.013 7.52855 13.138C7.65358 13.2631 7.82315 13.3333 7.99996 13.3333C8.17677 13.3333 8.34634 13.2631 8.47136 13.138C8.59639 13.013 8.66663 12.8434 8.66663 12.6666V8.66663H12.6666C12.8434 8.66663 13.013 8.59639 13.138 8.47136C13.2631 8.34634 13.3333 8.17677 13.3333 7.99996C13.3333 7.82315 13.2631 7.65358 13.138 7.52855C13.013 7.40353 12.8434 7.33329 12.6666 7.33329Z" fill="white"/>
</svg>
