<svg width="80" height="80" viewBox="0 0 80 80" fill="none" xmlns="http://www.w3.org/2000/svg">
<path d="M40.0177 38.4312C37.9474 38.4312 36.2677 40.1094 36.2677 42.1812C36.4458 53.4703 34.9958 64.3531 31.9395 75.2359C31.513 76.7547 32.2755 80 35.5521 80C37.1896 80 38.6943 78.9187 39.1599 77.2625C41.274 69.7766 44.01 57.6672 43.7662 42.1812C43.7678 40.1109 42.0896 38.4312 40.0177 38.4312ZM39.8834 25.6609C30.3114 25.65 23.6316 33.0156 23.7644 41.4562C23.8816 48.9469 23.1785 56.4422 21.6753 63.7297C21.255 65.7578 22.5613 67.7438 24.5879 68.1609C26.627 68.5781 28.5989 67.2766 29.0192 65.2484C30.6348 57.4219 31.3895 49.3766 31.2645 41.3391C31.2005 37.2844 34.3771 33.1375 39.7724 33.1609C44.6647 33.2344 48.7022 37.1203 48.7757 41.8281C48.896 49.3359 48.3366 56.8797 47.1178 64.2578C46.7788 66.2984 48.1632 68.2297 50.2054 68.5672C53.3257 69.0875 54.3945 66.2078 54.5148 65.4781C55.8086 57.6609 56.3992 49.6641 56.2758 41.7109C56.1383 32.9922 48.785 25.7922 39.8834 25.6609ZM22.5879 22.5703C20.9785 21.2672 18.6237 21.5078 17.3128 23.1141C13.3096 28.0359 11.158 34.2516 11.258 40.6141C11.3502 46.4859 10.8721 52.375 9.83458 58.1219C9.46896 60.1609 10.8205 62.1109 12.8596 62.4797C16.0018 63.0266 17.0894 60.1656 17.2175 59.4547C18.3409 53.2297 18.8581 46.8516 18.7581 40.4969C18.6847 35.8281 20.1956 31.4531 23.1332 27.8453C24.4379 26.2391 24.1941 23.8781 22.5879 22.5703ZM39.6927 12.8312C37.2849 12.7672 34.8693 13.0562 32.5395 13.6078C30.5255 14.0859 29.2786 16.1047 29.7536 18.1219C30.2317 20.1359 32.2536 21.3766 34.2677 20.9078C35.9943 20.5 37.7787 20.3187 39.5802 20.3312C51.3663 20.5078 61.1008 29.9406 61.2805 41.3594C61.3727 47.2781 61.0805 53.2516 60.4086 59.1141C60.1742 61.1719 61.6508 63.0328 63.7071 63.2672C66.3196 63.5719 67.6931 61.4109 67.8603 59.9687C68.5703 53.7529 68.8777 47.4977 68.7806 41.2422C68.5368 25.8125 55.4882 13.0656 39.6927 12.8312ZM79.0791 31.8078C78.6323 29.7891 76.6557 28.4953 74.6088 28.9531C72.5869 29.4 71.3087 31.4 71.7556 33.4234C72.4916 36.7687 72.5228 39.2687 72.49 43.0484C72.4728 45.1219 74.1385 46.8125 76.2088 46.8297H76.2401C78.2979 46.8297 79.9729 45.1719 79.9901 43.1109C80.0182 39.6453 80.0526 36.2187 79.0791 31.8078ZM72.8103 17.6328C65.2009 6.79061 52.7491 0.201552 39.5006 0.0031147C28.5957 -0.128135 18.5097 3.89218 11.008 11.3969C3.76264 18.6516 -0.142095 28.2875 0.0204065 38.5391L0.00165628 41.8937C-0.0592819 43.9641 1.56886 45.6922 3.6392 45.7516C3.67514 45.7547 3.7142 45.7547 3.7517 45.7547C5.77047 45.7547 7.43768 44.1453 7.49706 42.1141L7.52206 38.4203C7.39237 30.2172 10.5158 22.5047 16.3159 16.7016C22.3722 10.6391 30.588 7.37812 39.3912 7.50468C50.2429 7.66562 60.443 13.0609 66.6759 21.9406C67.865 23.6375 70.2009 24.0422 71.8978 22.8562C73.5916 21.6656 74.001 19.3266 72.8103 17.6328Z" fill="black"/>
</svg>
