<svg width="315" height="375" viewBox="0 0 315 375" fill="none" xmlns="http://www.w3.org/2000/svg">
<g clip-path="url(#clip0_11_100)">
<path d="M82.0046 226.888C81.5485 226.121 79.5751 226.943 79.2123 226.246C78.8508 225.552 80.6843 224.494 81.7318 222.078C81.9207 221.642 83.1111 218.896 82.2298 218.049C80.5595 216.443 72.9158 223.071 70.2408 220.902C69.6538 220.426 69.2436 219.476 67.4669 217.933C66.7601 217.319 66.3327 217.042 65.919 217.145C65.3321 217.291 65.2856 218.075 64.6562 219.617C63.7124 221.929 63.1541 221.789 62.6042 223.634C62.196 225.003 62.2892 225.799 61.8088 225.954C61.129 226.173 60.5033 224.721 59.6418 224.851C58.7627 224.984 58.2312 226.675 58.0633 227.941C57.7483 230.317 58.6225 231.884 59.107 233.533C59.6336 235.324 59.9461 238.049 58.7301 241.906L46.6943 275.751C49.3515 268.806 57.0451 249.768 60.2779 242.694C61.2112 240.651 62.2417 238.58 64.3575 237.762C66.3946 236.975 69.1922 237.445 72.7589 236.587C73.1754 236.487 74.3314 236.194 74.4769 235.515C74.5972 234.954 73.9172 234.641 74.0217 234.116C74.1618 233.411 75.4989 233.402 77.1419 232.589C78.3005 232.016 79.0223 231.334 79.643 230.748C79.8302 230.571 82.6119 227.91 82.0046 226.888Z" fill="#F2F2F2"/>
<path d="M34.6524 244.706C34.1433 244.708 33.9781 245.912 33.5309 245.888C33.0852 245.865 33.0941 244.662 32.2081 243.452C32.0483 243.233 31.0415 241.858 30.3706 242.045C29.0988 242.4 30.1526 248.057 28.3142 248.741C27.9108 248.891 27.3251 248.818 26.0539 249.243C25.5481 249.413 25.2885 249.542 25.2199 249.774C25.1225 250.104 25.4946 250.353 26.071 251.106C26.9356 252.235 26.7058 252.469 27.4542 253.27C28.0097 253.865 28.4281 254.049 28.3657 254.329C28.2775 254.726 27.3828 254.613 27.1982 255.073C27.0098 255.542 27.688 256.29 28.2621 256.737C29.3396 257.577 30.3628 257.601 31.3133 257.84C32.3462 258.099 33.7761 258.732 35.3219 260.44L48.4929 276.101C45.8443 272.796 38.7021 263.534 36.1559 259.909C35.4209 258.863 34.6995 257.76 34.908 256.488C35.1086 255.263 36.147 254.028 36.7543 252.033C36.8253 251.801 37.0145 251.15 36.7227 250.883C36.4816 250.662 36.1314 250.904 35.9032 250.702C35.597 250.43 35.9786 249.772 36.0528 248.733C36.1051 248 35.978 247.449 35.8688 246.976C35.8358 246.834 35.3301 244.703 34.6524 244.706Z" fill="#F2F2F2"/>
<path d="M44.8093 246.982L44.5026 244.249L44.6427 244.041C45.2912 243.083 45.6218 242.148 45.6257 241.26C45.6264 241.119 45.6198 240.977 45.6132 240.833C45.5867 240.263 45.5537 239.555 45.9239 238.729C46.1315 238.268 46.7145 237.202 47.5911 237.334C47.8271 237.367 48.0056 237.475 48.1411 237.602C48.161 237.57 48.1815 237.538 48.2033 237.504C48.4763 237.088 48.6925 236.91 48.9007 236.739C49.0607 236.607 49.226 236.471 49.4851 236.149C49.5988 236.008 49.6874 235.884 49.7621 235.779C49.9889 235.464 50.285 235.088 50.8073 235.095C51.3652 235.121 51.6574 235.581 51.8511 235.886C52.1969 236.43 52.3535 236.822 52.4573 237.082C52.495 237.177 52.538 237.284 52.5598 237.317C52.7396 237.581 54.2013 237.334 54.7519 237.244C55.9888 237.038 57.0591 236.86 57.5 237.639C57.816 238.196 57.5814 238.932 56.7814 239.886C56.5322 240.183 56.2671 240.409 56.0318 240.585C56.2268 240.702 56.4013 240.88 56.4721 241.159C56.6387 241.822 56.0681 242.486 54.7771 243.135C54.4564 243.297 54.0247 243.514 53.4199 243.618C53.1349 243.667 52.8784 243.679 52.659 243.685C52.6543 243.812 52.6246 243.949 52.5472 244.09C52.3205 244.506 51.8485 244.704 51.1372 244.656C50.3544 244.615 49.7099 244.466 49.1414 244.336C48.6449 244.222 48.2172 244.126 47.8814 244.148C47.2586 244.198 46.7787 244.696 46.2154 245.341L44.8093 246.982Z" fill="#F2F2F2"/>
<path d="M46.2323 230.71L43.6614 231.699L43.4251 231.616C42.3321 231.233 41.3415 231.151 40.4798 231.373C40.3428 231.408 40.2076 231.45 40.0699 231.493C39.5241 231.663 38.8457 231.875 37.9512 231.727C37.4522 231.644 36.2709 231.351 36.1765 230.471C36.1486 230.235 36.2082 230.035 36.2966 229.872C36.2609 229.861 36.225 229.849 36.1862 229.837C35.7141 229.679 35.4866 229.515 35.2675 229.358C35.099 229.237 34.9254 229.112 34.5476 228.943C34.3819 228.869 34.2392 228.815 34.1193 228.77C33.7561 228.631 33.3165 228.44 33.1904 227.934C33.0745 227.389 33.4467 226.99 33.693 226.726C34.1322 226.254 34.4723 226.003 34.6979 225.837C34.7804 225.777 34.8731 225.708 34.8996 225.679C35.1097 225.438 34.4998 224.09 34.2732 223.581C33.76 222.439 33.3158 221.451 33.9585 220.828C34.4181 220.381 35.1913 220.421 36.3188 220.951C36.6698 221.117 36.9557 221.315 37.1868 221.498C37.2499 221.28 37.3783 221.066 37.6315 220.927C38.2312 220.598 39.0192 220.981 39.9759 222.062C40.2146 222.331 40.5338 222.693 40.7883 223.25C40.9079 223.513 40.9844 223.757 41.0465 223.968C41.1705 223.94 41.311 223.934 41.4675 223.973C41.9279 224.086 42.2394 224.492 42.3738 225.191C42.5327 225.957 42.5517 226.617 42.5693 227.199C42.5852 227.707 42.6003 228.144 42.7073 228.463C42.9138 229.051 43.5177 229.388 44.286 229.768L46.2323 230.71Z" fill="#F2F2F2"/>
<path d="M44.8093 222.659L44.5026 219.926L44.6427 219.719C45.2912 218.76 45.6218 217.825 45.6257 216.937C45.6264 216.796 45.6198 216.654 45.6132 216.511C45.5867 215.941 45.5537 215.232 45.9239 214.406C46.1315 213.945 46.7145 212.879 47.5911 213.011C47.8271 213.044 48.0056 213.152 48.1411 213.279C48.161 213.247 48.1815 213.216 48.2033 213.181C48.4763 212.766 48.6925 212.587 48.9007 212.416C49.0607 212.284 49.226 212.148 49.4851 211.826C49.5988 211.685 49.6874 211.561 49.7621 211.457C49.9889 211.141 50.285 210.765 50.8073 210.772C51.3652 210.798 51.6574 211.259 51.8511 211.563C52.1969 212.107 52.3535 212.499 52.4573 212.759C52.495 212.854 52.538 212.961 52.5598 212.994C52.7396 213.258 54.2013 213.011 54.7519 212.921C55.9888 212.715 57.0591 212.537 57.5 213.316C57.816 213.873 57.5814 214.609 56.7814 215.563C56.5322 215.86 56.2671 216.086 56.0318 216.262C56.2268 216.379 56.4013 216.557 56.4721 216.837C56.6387 217.499 56.0681 218.163 54.7771 218.812C54.4564 218.974 54.0247 219.191 53.4199 219.295C53.1349 219.344 52.8784 219.356 52.659 219.362C52.6543 219.489 52.6246 219.626 52.5472 219.767C52.3205 220.183 51.8485 220.381 51.1372 220.333C50.3544 220.293 49.7099 220.143 49.1414 220.013C48.6449 219.899 48.2172 219.803 47.8814 219.825C47.2586 219.876 46.7787 220.373 46.2154 221.018L44.8093 222.659Z" fill="#F2F2F2"/>
<path d="M47.611 275.707L47.0371 275.348L46.3681 275.424C46.3576 275.362 46.3212 275.22 46.2663 274.997C45.9669 273.775 45.0539 270.056 44.2924 264.2C43.7608 260.112 43.4601 255.909 43.3979 251.706C43.3358 247.496 43.5354 244.309 43.6954 241.748C43.8164 239.816 43.9631 237.977 44.1073 236.185C44.4907 231.397 44.8523 226.875 44.5832 221.868C44.5237 220.75 44.3988 218.424 43.037 215.948C42.247 214.513 41.1588 213.238 39.8023 212.161L40.6458 211.103C42.1432 212.293 43.347 213.705 44.2243 215.299C45.7342 218.044 45.8704 220.579 45.9358 221.797C46.2095 226.892 45.8439 231.458 45.4565 236.291C45.3137 238.077 45.167 239.908 45.0466 241.832C44.888 244.37 44.6903 247.529 44.7518 251.685C44.8126 255.837 45.1101 259.989 45.6343 264.025C46.3866 269.808 47.2864 273.471 47.5819 274.675C47.7392 275.317 47.7723 275.452 47.611 275.707Z" fill="#F2F2F2"/>
<path d="M37.3193 214.308C37.2638 214.308 37.2076 214.307 37.1508 214.303C35.9978 214.241 34.9302 213.552 33.9769 212.256C33.53 211.647 33.3013 210.951 32.8452 209.564C32.7744 209.35 32.4306 208.266 32.2217 206.773C32.0849 205.798 32.1021 205.39 32.2958 205.03C32.5106 204.629 32.8584 204.349 33.2497 204.16C33.2325 204.031 33.2464 203.898 33.3026 203.762C33.5333 203.198 34.1468 203.272 34.4787 203.308C34.6466 203.329 34.8562 203.357 35.0822 203.345C35.4379 203.328 35.629 203.222 35.9185 203.064C36.1955 202.912 36.5399 202.723 37.0509 202.619C38.0584 202.409 38.9026 202.694 39.1809 202.788C40.6452 203.275 41.3671 204.411 42.2027 205.727C42.3693 205.991 42.9411 206.951 43.3186 208.268C43.591 209.218 43.5526 209.641 43.4707 209.955C43.3041 210.6 42.9107 210.97 41.9118 211.785C40.8687 212.639 40.3451 213.066 39.8955 213.326C38.8491 213.929 38.1919 214.308 37.3193 214.308Z" fill="#F2F2F2"/>
<path d="M181.693 275.548H95.0804C82.0897 275.548 71.5208 265 71.5208 252.034V23.514C71.5208 10.5484 82.0897 0 95.0804 0H181.693C194.683 0 205.252 10.5484 205.252 23.514C206.864 115.281 209.613 218.045 205.252 252.034C205.252 265 194.683 275.548 181.693 275.548Z" fill="#3F3D56"/>
<path d="M206.46 84.0572C205.91 84.0572 205.463 84.5034 205.463 85.052V116.884C205.463 117.433 205.91 117.879 206.46 117.879C207.009 117.879 207.456 117.433 207.456 116.884V85.052C207.456 84.5034 207.009 84.0572 206.46 84.0572Z" fill="#3F3D56"/>
<path d="M197.11 26.3831L203.01 252.03C203.01 263.316 194.209 272.547 183.081 273.263H183.076C182.911 273.273 182.747 273.283 182.578 273.288C182.284 273.303 181.99 273.308 181.691 273.308C181.691 273.308 180.594 273.229 178.591 273.079C176.568 272.93 173.622 272.706 169.95 272.413C168.848 272.328 167.687 272.234 166.461 272.134C164.019 271.935 161.338 271.717 158.463 271.468C157.317 271.373 156.131 271.269 154.92 271.164C148.73 270.632 141.798 270.01 134.487 269.304C133.252 269.19 132.006 269.07 130.75 268.946C130.421 268.911 73.7636 254.696 73.7636 252.03V23.5142C73.7636 11.7612 83.3069 2.23633 95.0827 2.23633H107.81C109.844 2.23633 111.478 3.81799 111.653 5.84233C111.668 5.97663 111.683 6.1109 111.707 6.24521C112.076 8.2795 113.945 9.69703 116.018 9.69703H160.755C162.828 9.69703 164.697 8.2795 165.066 6.24521C165.091 6.11091 165.106 5.97664 165.121 5.84233C165.295 3.818 166.93 2.23633 168.963 2.23633H181.691C193.466 2.23633 197.11 14.6301 197.11 26.3831Z" fill="white"/>
<path d="M71.0226 60.183C70.4729 60.183 70.0259 60.6291 70.0259 61.1777V69.1358C70.0259 69.6844 70.4729 70.1306 71.0226 70.1306C71.5723 70.1306 72.0193 69.6844 72.0193 69.1358V61.1777C72.0193 60.6291 71.5723 60.183 71.0226 60.183Z" fill="#3F3D56"/>
<path d="M71.0226 84.0572C70.4729 84.0572 70.0259 84.5034 70.0259 85.052V100.471C70.0259 101.019 70.4729 101.465 71.0226 101.465C71.5723 101.465 72.0193 101.019 72.0193 100.471V85.052C72.0193 84.5034 71.5723 84.0572 71.0226 84.0572Z" fill="#3F3D56"/>
<path d="M71.0226 105.942C70.4729 105.942 70.0259 106.388 70.0259 106.937V122.355C70.0259 122.904 70.4729 123.35 71.0226 123.35C71.5723 123.35 72.0193 122.904 72.0193 122.355V106.937C72.0193 106.388 71.5723 105.942 71.0226 105.942Z" fill="#3F3D56"/>
<path d="M107.483 5.71994H88.383C88.2904 5.71994 88.2154 5.79483 88.2154 5.88721V8.03956C88.2154 8.13194 88.2904 8.20684 88.383 8.20684H107.483C107.576 8.20684 107.651 8.13194 107.651 8.03956V5.88721C107.651 5.79483 107.576 5.71994 107.483 5.71994Z" fill="#E6E6E6"/>
<path d="M172.112 8.20685C173.213 8.20685 174.106 7.31611 174.106 6.21733C174.106 5.11855 173.213 4.22781 172.112 4.22781C171.011 4.22781 170.119 5.11855 170.119 6.21733C170.119 7.31611 171.011 8.20685 172.112 8.20685Z" fill="#E6E6E6"/>
<path d="M177.594 8.20685C178.695 8.20685 179.587 7.31611 179.587 6.21733C179.587 5.11855 178.695 4.22781 177.594 4.22781C176.493 4.22781 175.601 5.11855 175.601 6.21733C175.601 7.31611 176.493 8.20685 177.594 8.20685Z" fill="#E6E6E6"/>
<path d="M183.076 8.20685C184.177 8.20685 185.069 7.31611 185.069 6.21733C185.069 5.11855 184.177 4.22781 183.076 4.22781C181.975 4.22781 181.082 5.11855 181.082 6.21733C181.082 7.31611 181.975 8.20685 183.076 8.20685Z" fill="#E6E6E6"/>
<path d="M315 275.631C315 275.882 314.797 276.084 314.546 276.084H0V275.178H314.546C314.797 275.178 315 275.381 315 275.631Z" fill="#E6E6E6"/>
<path d="M247.78 328.822L258.46 332.227L244.788 363.714L237.551 361.408L247.78 328.822Z" fill="#A0616A"/>
<path d="M249.583 353.939L245.32 354.202L244.481 356.4C244.481 356.4 244.582 353.523 240.095 351.17L238.716 353.084C238.716 353.084 236.091 354.475 234.953 358.371L232.262 368.943L235.838 370.218L239.115 363.399C239.115 363.399 240.705 362.176 242.286 371.486C242.286 371.486 246.761 374.628 255.419 374.997C256.609 375.048 257.718 374.346 258.131 373.231C258.359 372.616 258.336 371.958 257.645 371.46C255.885 370.194 253.72 370.117 253.055 368.072C252.39 366.028 249.583 353.939 249.583 353.939Z" fill="#2F2E41"/>
<path d="M173.734 323.328L162.872 326.101L174.67 358.335L182.03 356.456L173.734 323.328Z" fill="#A0616A"/>
<path d="M170.458 348.296L174.699 348.808L175.407 351.051C175.407 351.051 175.475 348.174 180.092 346.088L181.356 348.079C181.356 348.079 183.895 349.621 184.803 353.577L186.867 364.288L183.223 365.352L180.352 358.353C180.352 358.353 178.837 357.039 176.711 366.24C176.711 366.24 172.059 369.115 163.395 368.977C162.204 368.958 161.137 368.192 160.791 367.054C160.6 366.427 160.661 365.771 161.38 365.315C163.212 364.154 165.377 364.204 166.161 362.202C166.946 360.2 170.458 348.296 170.458 348.296Z" fill="#2F2E41"/>
<path d="M200.483 194.035H229.489V151.257H200.483V194.035Z" fill="#2F2E41"/>
<path d="M224.511 224.066L223.645 246.967L195.071 244.807L198.534 222.338L224.511 224.066Z" fill="#A0616A"/>
<path d="M192.906 236.597L234.035 237.893L244.3 252.391L239.538 277.885C239.538 277.885 218.882 272.029 184.68 278.943L186.845 255.177L193.448 248.587L192.906 236.597Z" fill="#2F2E41"/>
<path d="M237.499 253.881L248.755 258.634C248.755 258.634 269.969 268.14 271.268 281.103C272.566 294.066 257.113 342.461 257.113 342.461L240.154 343.473C240.154 343.473 245.194 346.974 245.194 322.958C245.194 306.242 252.651 290.177 252.651 290.177C252.651 290.177 241.828 270.301 214.12 275.054C214.12 275.054 183.843 274.074 169.556 292.222C169.556 292.222 177.12 308.399 177.66 318.105L179.897 339.115L165.61 340.411C165.61 340.411 144.85 284.992 153.942 273.757C163.034 262.523 182.516 256.041 182.516 256.041L237.499 253.881Z" fill="#2F2E41"/>
<path d="M222.978 180.991L221.962 168.739H208.456L205.461 181.72L222.978 180.991Z" fill="#A0616A"/>
<path opacity="0.1" d="M222.978 180.991L221.962 168.739H208.456L205.461 181.72L222.978 180.991Z" fill="black"/>
<path d="M227.846 157.902C227.846 166.04 221.236 172.638 213.082 172.638C204.928 172.638 198.318 166.04 198.318 157.902C198.318 149.764 204.928 143.166 213.082 143.166C221.236 143.166 227.846 149.764 227.846 157.902Z" fill="#A0616A"/>
<path d="M205.461 179.128H222.779L224.944 183.881L227.108 231.844C227.108 231.844 210.657 227.955 196.37 228.387L199.833 184.745L204.163 182.152L205.461 179.128Z" fill="#6C63FF"/>
<path d="M221.913 276.782C221.913 276.782 230.572 257.338 234.035 256.905C237.499 256.473 245.314 256.905 245.314 256.905L243.56 253.881C243.56 253.881 243.127 247.831 238.797 247.831C234.468 247.831 236.2 185.609 236.2 185.609L224.073 181.969C224.073 181.969 217.151 203.325 217.151 223.634C217.151 243.942 216.285 266.412 216.285 266.412L221.913 276.782Z" fill="#2F2E41"/>
<path d="M204.661 180.991L189.443 185.177L191.175 244.807L181.217 256.905C181.217 256.905 194.205 256.905 197.236 267.708C197.236 267.708 200.83 273.614 204.661 273.038C208.492 272.461 205.894 260.362 205.894 260.362L201.998 245.239L202.431 219.745L204.661 180.991Z" fill="#2F2E41"/>
<path d="M209.358 142.399C209.358 142.399 209.358 136.35 214.986 137.646C220.614 138.942 222.346 141.103 222.346 141.103C222.346 141.103 224.511 144.56 227.974 144.992C231.438 145.424 234.468 155.362 234.035 157.523C233.602 159.683 231.438 165.3 234.468 167.893C237.499 170.486 241.828 174.375 240.529 178.263C239.23 182.152 235.334 192.091 235.334 192.091C235.334 192.091 246.202 193.676 245.314 200.445C245.314 200.445 240.096 196.412 233.169 196.412C226.242 196.412 227.108 183.869 227.108 183.869C227.108 183.869 226.675 176.103 225.376 173.942C224.078 171.782 225.809 159.683 219.315 153.202C212.821 146.72 209.358 142.399 209.358 142.399Z" fill="#2F2E41"/>
<path d="M211.09 141.103C211.09 141.103 202.864 142.831 199.833 151.041C196.803 159.251 198.333 160.779 198.333 160.779C198.333 160.779 197.663 165.722 193.986 167.456C190.309 169.189 193.339 176.535 193.339 176.535C193.339 176.535 192.473 183.881 180.784 186.473C169.095 189.066 171.692 204.189 171.692 204.189C171.692 204.189 181.217 190.794 193.339 190.362C205.461 189.93 203.297 176.535 203.297 176.535L201.998 162.276C201.998 162.276 204.596 145.856 212.388 143.695C220.181 141.535 211.09 141.103 211.09 141.103Z" fill="#2F2E41"/>
<path d="M222.834 277.829C222.491 281.849 224.291 285.284 226.854 285.502C229.418 285.719 231.773 282.637 232.116 278.615C232.275 277.011 232.046 275.392 231.45 273.893L232.688 256.842L224.658 256.433L224.29 273.286C223.448 274.662 222.949 276.22 222.834 277.829Z" fill="#A0616A"/>
<path d="M191.662 278.261C191.319 282.281 193.119 285.716 195.683 285.934C198.246 286.151 200.602 283.069 200.944 279.047C201.103 277.443 200.875 275.824 200.278 274.325L201.517 257.274L193.487 256.865L193.119 273.718C192.277 275.094 191.777 276.652 191.662 278.261Z" fill="#A0616A"/>
<path d="M232.953 185.825C232.953 185.825 243.776 182.8 245.941 189.714C248.106 196.628 241.395 234.652 241.395 234.652L235.117 274.405L221.696 271.813L230.355 218.665L232.953 185.825Z" fill="#2F2E41"/>
<path d="M200.355 185.259C200.355 185.259 189.866 181.228 187.057 187.907C184.248 194.585 187.33 233.072 187.33 233.072L189.817 273.24L203.424 271.924L199.833 218.197L200.355 185.259Z" fill="#2F2E41"/>
<path d="M133.911 160.651H45.2809C41.7129 160.651 38.8103 157.753 38.8103 154.193V87.3032C38.8103 83.7424 41.7129 80.8451 45.2809 80.8451H133.911C137.479 80.8451 140.381 83.7424 140.381 87.3032V154.193C140.381 157.753 137.479 160.651 133.911 160.651Z" fill="white"/>
<path d="M133.911 160.651H45.2809C41.7129 160.651 38.8103 157.753 38.8103 154.193V87.3032C38.8103 83.7424 41.7129 80.8451 45.2809 80.8451H133.911C137.479 80.8451 140.381 83.7424 140.381 87.3032V154.193C140.381 157.753 137.479 160.651 133.911 160.651ZM45.2809 81.9235C42.3089 81.9235 39.8908 84.3369 39.8908 87.3032V154.193C39.8908 157.159 42.3089 159.572 45.2809 159.572H133.911C136.883 159.572 139.301 157.159 139.301 154.193V87.3032C139.301 84.3369 136.883 81.9235 133.911 81.9235H45.2809Z" fill="#3F3D56"/>
<path d="M124.173 88.9335C125.068 88.9335 125.794 88.2093 125.794 87.3158C125.794 86.4224 125.068 85.6982 124.173 85.6982C123.278 85.6982 122.552 86.4224 122.552 87.3158C122.552 88.2093 123.278 88.9335 124.173 88.9335Z" fill="#3F3D56"/>
<path d="M128.495 88.9335C129.391 88.9335 130.116 88.2093 130.116 87.3158C130.116 86.4224 129.391 85.6982 128.495 85.6982C127.6 85.6982 126.875 86.4224 126.875 87.3158C126.875 88.2093 127.6 88.9335 128.495 88.9335Z" fill="#3F3D56"/>
<path d="M132.818 88.9335C133.713 88.9335 134.438 88.2093 134.438 87.3158C134.438 86.4224 133.713 85.6982 132.818 85.6982C131.922 85.6982 131.197 86.4224 131.197 87.3158C131.197 88.2093 131.922 88.9335 132.818 88.9335Z" fill="#3F3D56"/>
<path d="M47.9949 113.468C47.548 113.468 47.1845 113.831 47.1845 114.277C47.1845 114.495 47.2687 114.696 47.4214 114.844C47.5755 115.002 47.7773 115.086 47.9949 115.086H131.737C132.184 115.086 132.547 114.723 132.547 114.277C132.547 114.06 132.463 113.859 132.311 113.71C132.156 113.553 131.955 113.468 131.737 113.468H47.9949Z" fill="#E6E6E6"/>
<path d="M116.609 113.199V115.356H47.9949C47.6978 115.356 47.4276 115.237 47.2331 115.037C47.0332 114.843 46.9144 114.574 46.9144 114.277C46.9144 113.684 47.4006 113.199 47.9949 113.199H116.609Z" fill="#6C63FF"/>
<path d="M130.386 109.155H119.581C118.389 109.155 117.42 108.187 117.42 106.998C117.42 105.808 118.389 104.841 119.581 104.841H130.386C131.578 104.841 132.547 105.808 132.547 106.998C132.547 108.187 131.578 109.155 130.386 109.155Z" fill="#E6E6E6"/>
<path d="M59.6107 97.8308H48.8053C47.6137 97.8308 46.6442 96.8634 46.6442 95.6738C46.6442 94.4843 47.6137 93.5169 48.8053 93.5169H59.6107C60.8024 93.5169 61.7718 94.4843 61.7718 95.6738C61.7718 96.8634 60.8024 97.8308 59.6107 97.8308Z" fill="#E6E6E6"/>
<path d="M47.9949 137.734C47.548 137.734 47.1845 138.096 47.1845 138.542C47.1845 138.76 47.2687 138.961 47.4214 139.11C47.5755 139.267 47.7773 139.351 47.9949 139.351H131.737C132.184 139.351 132.547 138.988 132.547 138.542C132.547 138.325 132.463 138.124 132.311 137.975C132.156 137.818 131.955 137.734 131.737 137.734H47.9949Z" fill="#E6E6E6"/>
<path d="M75.0085 137.464V139.621H47.9949C47.6978 139.621 47.4276 139.502 47.2331 139.303C47.0332 139.109 46.9144 138.839 46.9144 138.542C46.9144 137.949 47.4006 137.464 47.9949 137.464H75.0085Z" fill="#6C63FF"/>
<path d="M130.386 133.42H119.581C118.389 133.42 117.42 132.452 117.42 131.263C117.42 130.073 118.389 129.106 119.581 129.106H130.386C131.578 129.106 132.547 130.073 132.547 131.263C132.547 132.452 131.578 133.42 130.386 133.42Z" fill="#E6E6E6"/>
</g>
<defs>
<clipPath id="clip0_11_100">
<rect width="315" height="375" fill="white"/>
</clipPath>
</defs>
</svg>
