<svg width="25" height="22" viewBox="0 0 25 22" fill="none" xmlns="http://www.w3.org/2000/svg">
<path d="M24.5425 8.91748L22.333 6.70801C22.04 6.41504 21.6426 6.25049 21.228 6.25049H18.75V2.34375C18.75 1.04932 17.7007 0 16.4062 0H8.59375C7.29932 0 6.25 1.04932 6.25 2.34375V6.25H3.77197C3.35742 6.25 2.96045 6.41455 2.66699 6.70752L0.45752 8.91748C0.164551 9.21045 0 9.60791 0 10.0225V14.0625H6.25V13.2812C6.25 12.8496 6.59961 12.5 7.03125 12.5H8.59375C9.02539 12.5 9.375 12.8496 9.375 13.2812V14.0625H15.625V13.2812C15.625 12.8496 15.9746 12.5 16.4062 12.5H17.9688C18.4004 12.5 18.75 12.8496 18.75 13.2812V14.0625H25V10.022C25 9.60791 24.8354 9.21045 24.5425 8.91748ZM15.625 6.25H9.375V3.125H15.625V6.25ZM18.75 16.4062C18.75 16.8379 18.4004 17.1875 17.9688 17.1875H16.4062C15.9746 17.1875 15.625 16.8379 15.625 16.4062V15.625H9.375V16.4062C9.375 16.8379 9.02539 17.1875 8.59375 17.1875H7.03125C6.59961 17.1875 6.25 16.8379 6.25 16.4062V15.625H0V20.3125C0 21.1753 0.699707 21.875 1.5625 21.875H23.4375C24.3003 21.875 25 21.1753 25 20.3125V15.625H18.75V16.4062Z" fill="#F28A5D"/>
</svg>
