<svg width="10" height="7" viewBox="0 0 10 7" fill="none" xmlns="http://www.w3.org/2000/svg">
<path d="M9.40388 0.202568C9.34022 0.138381 9.26448 0.0874345 9.18102 0.0526672C9.09757 0.0178998 9.00806 0 8.91766 0C8.82726 0 8.73775 0.0178998 8.65429 0.0526672C8.57084 0.0874345 8.4951 0.138381 8.43144 0.202568L3.32954 5.31132L1.18605 3.16099C1.11995 3.09713 1.04192 3.04693 0.956421 3.01323C0.870918 2.97954 0.779615 2.96301 0.687726 2.9646C0.595836 2.96619 0.50516 2.98586 0.420873 3.0225C0.336587 3.05913 0.260341 3.11201 0.19649 3.17811C0.132638 3.24421 0.0824316 3.32224 0.0487358 3.40774C0.0150399 3.49324 -0.00148506 3.58454 0.000104721 3.67643C0.00169451 3.76832 0.0213679 3.859 0.0580012 3.94329C0.0946345 4.02757 0.147511 4.10382 0.21361 4.16767L2.84332 6.79737C2.90698 6.86156 2.98272 6.91251 3.06617 6.94728C3.14962 6.98204 3.23913 6.99994 3.32954 6.99994C3.41994 6.99994 3.50945 6.98204 3.5929 6.94728C3.67635 6.91251 3.7521 6.86156 3.81576 6.79737L9.40388 1.20925C9.47339 1.14512 9.52887 1.06729 9.56681 0.980664C9.60476 0.894035 9.62435 0.800485 9.62435 0.70591C9.62435 0.611336 9.60476 0.517786 9.56681 0.431157C9.52887 0.344527 9.47339 0.266696 9.40388 0.202568Z" fill="#0042FC"/>
</svg>
