<svg width="26" height="20" viewBox="0 0 26 20" fill="none" xmlns="http://www.w3.org/2000/svg">
<path d="M12.5185 5.1885L4.28684 11.9682V19.2855C4.28684 19.475 4.3621 19.6567 4.49607 19.7907C4.63004 19.9246 4.81174 19.9999 5.0012 19.9999L10.0044 19.9869C10.1932 19.986 10.374 19.9103 10.5072 19.7764C10.6404 19.6426 10.7152 19.4614 10.7152 19.2726V14.9994C10.7152 14.8099 10.7905 14.6282 10.9244 14.4942C11.0584 14.3603 11.2401 14.285 11.4296 14.285H14.287C14.4765 14.285 14.6582 14.3603 14.7921 14.4942C14.9261 14.6282 15.0014 14.8099 15.0014 14.9994V19.2695C15.0011 19.3635 15.0193 19.4566 15.0551 19.5435C15.0909 19.6304 15.1434 19.7095 15.2098 19.776C15.2762 19.8426 15.355 19.8954 15.4418 19.9315C15.5287 19.9675 15.6217 19.986 15.7157 19.986L20.7171 19.9999C20.9066 19.9999 21.0883 19.9246 21.2223 19.7907C21.3562 19.6567 21.4315 19.475 21.4315 19.2855V11.9633L13.2016 5.1885C13.1049 5.11051 12.9843 5.06798 12.8601 5.06798C12.7358 5.06798 12.6153 5.11051 12.5185 5.1885ZM25.5212 9.79657L21.7887 6.71991V0.535771C21.7887 0.393676 21.7322 0.2574 21.6318 0.156924C21.5313 0.0564472 21.395 0 21.2529 0H18.7527C18.6106 0 18.4743 0.0564472 18.3738 0.156924C18.2733 0.2574 18.2169 0.393676 18.2169 0.535771V3.77763L14.2196 0.488891C13.836 0.173223 13.3546 0.000631025 12.8578 0.000631025C12.361 0.000631025 11.8797 0.173223 11.4961 0.488891L0.19444 9.79657C0.140187 9.84142 0.095302 9.89651 0.0623485 9.9587C0.029395 10.0209 0.00901915 10.089 0.00238514 10.159C-0.00424887 10.2291 0.002989 10.2998 0.0236852 10.3671C0.0443814 10.4344 0.0781303 10.4969 0.123004 10.5511L1.26152 11.9352C1.30627 11.9896 1.36131 12.0347 1.4235 12.0678C1.48568 12.1009 1.55379 12.1214 1.62392 12.1282C1.69405 12.1349 1.76482 12.1278 1.83218 12.1072C1.89955 12.0865 1.96219 12.0528 2.01651 12.008L12.5185 3.35795C12.6153 3.27996 12.7358 3.23743 12.8601 3.23743C12.9843 3.23743 13.1049 3.27996 13.2016 3.35795L23.7041 12.008C23.7583 12.0528 23.8208 12.0866 23.8881 12.1073C23.9554 12.128 24.0261 12.1352 24.0961 12.1286C24.1662 12.122 24.2343 12.1016 24.2965 12.0686C24.3587 12.0357 24.4138 11.9908 24.4586 11.9365L25.5971 10.5525C25.642 10.4979 25.6756 10.4351 25.696 10.3675C25.7165 10.2999 25.7234 10.229 25.7163 10.1587C25.7093 10.0885 25.6884 10.0203 25.6549 9.95819C25.6214 9.89603 25.576 9.84111 25.5212 9.79657Z" fill="#272951"/>
</svg>
